<svg width="25" height="27" viewBox="0 0 25 27" fill="none" xmlns="http://www.w3.org/2000/svg">
    <path d="M6.33976 6.69624C6.76281 6.34126 6.81802 5.71048 6.46302 5.2874C6.10802 4.86433 5.47723 4.80917 5.05419 5.16415C4.63114 5.51912 4.57593 6.14991 4.93093 6.57298C5.28593 6.99605 5.91672 7.05121 6.33976 6.69624Z" fill="currentColor"/>
    <path fill-rule="evenodd" clip-rule="evenodd" d="M1.29145 13.1257C1.00792 12.7878 0.844094 12.3656 0.82537 11.9249L0.548062 5.39528C0.521774 4.77486 0.785055 4.17745 1.26075 3.7783L4.34812 1.18769C4.82381 0.788534 5.45786 0.63299 6.06429 0.766616L12.4466 2.17357C12.8773 2.26853 13.2646 2.50318 13.5482 2.84108L24.0383 15.3427C24.7483 16.1889 24.638 17.4504 23.7918 18.1604L14.5992 25.8739C13.7531 26.5839 12.4916 26.4735 11.7816 25.6273L1.29145 13.1257ZM12.7821 3.48387L23.2723 15.9855C23.6273 16.4086 23.572 17.0394 23.149 17.3944L13.9565 25.1078C13.5334 25.4628 12.9026 25.4076 12.5476 24.9846L2.05749 12.4829C1.91573 12.3139 1.83377 12.1029 1.82445 11.8825L1.54715 5.35287C1.534 5.04266 1.66564 4.74396 1.90353 4.54434L4.9909 1.95373C5.2288 1.75412 5.54582 1.67634 5.84904 1.74316L12.2313 3.15011C12.4467 3.19755 12.6404 3.31492 12.7821 3.48387Z" fill="currentColor"/>
</svg>